<mxfile host="Electron" agent="Mozilla/5.0 (Macintosh; Intel Mac OS X 10_15_7) AppleWebKit/537.36 (KHTML, like Gecko) draw.io/24.7.17 Chrome/128.0.6613.36 Electron/32.0.1 Safari/537.36" version="24.7.17">
  <diagram name="Page-1" id="gjnw0PSjSMnMZass7r0z">
    <mxGraphModel dx="1083" dy="1903" grid="1" gridSize="10" guides="1" tooltips="1" connect="1" arrows="1" fold="1" page="1" pageScale="1" pageWidth="850" pageHeight="1100" math="0" shadow="0">
      <root>
        <mxCell id="0" />
        <mxCell id="1" parent="0" />
        <mxCell id="o-FBNZwD-aRnHL2j0Tsy-55" value="" style="rounded=0;whiteSpace=wrap;html=1;fillColor=#f5f5f5;strokeColor=#666666;fontColor=#333333;" vertex="1" parent="1">
          <mxGeometry x="620" y="-20" width="690" height="560" as="geometry" />
        </mxCell>
        <mxCell id="o-FBNZwD-aRnHL2j0Tsy-56" value="" style="edgeStyle=orthogonalEdgeStyle;rounded=0;orthogonalLoop=1;jettySize=auto;html=1;" edge="1" parent="1" source="o-FBNZwD-aRnHL2j0Tsy-2" target="o-FBNZwD-aRnHL2j0Tsy-6">
          <mxGeometry relative="1" as="geometry" />
        </mxCell>
        <mxCell id="o-FBNZwD-aRnHL2j0Tsy-57" value="" style="edgeStyle=orthogonalEdgeStyle;rounded=0;orthogonalLoop=1;jettySize=auto;html=1;" edge="1" parent="1" source="o-FBNZwD-aRnHL2j0Tsy-6" target="o-FBNZwD-aRnHL2j0Tsy-7">
          <mxGeometry relative="1" as="geometry" />
        </mxCell>
        <mxCell id="o-FBNZwD-aRnHL2j0Tsy-49" style="edgeStyle=orthogonalEdgeStyle;rounded=0;orthogonalLoop=1;jettySize=auto;html=1;entryX=0.548;entryY=0;entryDx=0;entryDy=0;entryPerimeter=0;" edge="1" parent="1" target="o-FBNZwD-aRnHL2j0Tsy-17">
          <mxGeometry relative="1" as="geometry">
            <mxPoint x="650" y="-165" as="sourcePoint" />
            <mxPoint x="685" y="-15" as="targetPoint" />
            <Array as="points">
              <mxPoint x="650" y="-160" />
              <mxPoint x="690" y="-160" />
            </Array>
          </mxGeometry>
        </mxCell>
        <mxCell id="o-FBNZwD-aRnHL2j0Tsy-59" style="edgeStyle=orthogonalEdgeStyle;rounded=0;orthogonalLoop=1;jettySize=auto;html=1;entryX=0;entryY=0.5;entryDx=0;entryDy=0;" edge="1" parent="1" source="o-FBNZwD-aRnHL2j0Tsy-7" target="o-FBNZwD-aRnHL2j0Tsy-32">
          <mxGeometry relative="1" as="geometry">
            <Array as="points">
              <mxPoint x="690" y="-160" />
              <mxPoint x="690" y="-30" />
              <mxPoint x="420" y="-30" />
              <mxPoint x="420" y="620" />
            </Array>
          </mxGeometry>
        </mxCell>
        <mxCell id="o-FBNZwD-aRnHL2j0Tsy-14" value="L1" style="rounded=0;whiteSpace=wrap;html=1;fillColor=#d5e8d4;strokeColor=#82b366;" vertex="1" parent="1">
          <mxGeometry x="780" y="560" width="270" height="60" as="geometry" />
        </mxCell>
        <mxCell id="o-FBNZwD-aRnHL2j0Tsy-54" style="edgeStyle=orthogonalEdgeStyle;rounded=0;orthogonalLoop=1;jettySize=auto;html=1;entryX=0;entryY=0.5;entryDx=0;entryDy=0;startArrow=block;startFill=1;" edge="1" parent="1" source="o-FBNZwD-aRnHL2j0Tsy-15" target="o-FBNZwD-aRnHL2j0Tsy-28">
          <mxGeometry relative="1" as="geometry">
            <Array as="points">
              <mxPoint x="1200" y="340" />
              <mxPoint x="1200" y="260" />
            </Array>
          </mxGeometry>
        </mxCell>
        <mxCell id="o-FBNZwD-aRnHL2j0Tsy-15" value="Proxyd" style="rounded=0;whiteSpace=wrap;html=1;fillColor=#fad9d5;strokeColor=#ae4132;" vertex="1" parent="1">
          <mxGeometry x="1090" y="220" width="80" height="280" as="geometry" />
        </mxCell>
        <mxCell id="o-FBNZwD-aRnHL2j0Tsy-16" value="Blockscout stack" style="rounded=0;whiteSpace=wrap;html=1;fillColor=#ffe6cc;strokeColor=#d79b00;" vertex="1" parent="1">
          <mxGeometry x="780" y="70" width="270" height="60" as="geometry" />
        </mxCell>
        <mxCell id="o-FBNZwD-aRnHL2j0Tsy-17" value="Helm Release" style="rounded=0;whiteSpace=wrap;html=1;fillColor=#bac8d3;strokeColor=#23445d;" vertex="1" parent="1">
          <mxGeometry x="630" y="-10" width="110" height="540" as="geometry" />
        </mxCell>
        <mxCell id="o-FBNZwD-aRnHL2j0Tsy-19" value="Terraform" style="rounded=0;whiteSpace=wrap;html=1;fillColor=#d0cee2;strokeColor=#56517e;" vertex="1" parent="1">
          <mxGeometry x="500" y="-20" width="110" height="560" as="geometry" />
        </mxCell>
        <mxCell id="o-FBNZwD-aRnHL2j0Tsy-28" value="Ingress" style="rounded=0;whiteSpace=wrap;html=1;fillColor=#b0e3e6;strokeColor=#0e8088;" vertex="1" parent="1">
          <mxGeometry x="1220" y="-10" width="80" height="540" as="geometry" />
        </mxCell>
        <mxCell id="o-FBNZwD-aRnHL2j0Tsy-33" style="edgeStyle=orthogonalEdgeStyle;rounded=0;orthogonalLoop=1;jettySize=auto;html=1;entryX=0.5;entryY=1;entryDx=0;entryDy=0;" edge="1" parent="1" source="o-FBNZwD-aRnHL2j0Tsy-32" target="o-FBNZwD-aRnHL2j0Tsy-17">
          <mxGeometry relative="1" as="geometry" />
        </mxCell>
        <mxCell id="o-FBNZwD-aRnHL2j0Tsy-32" value="Contracts deoployments" style="rounded=0;whiteSpace=wrap;html=1;" vertex="1" parent="1">
          <mxGeometry x="495" y="590" width="120" height="60" as="geometry" />
        </mxCell>
        <mxCell id="o-FBNZwD-aRnHL2j0Tsy-37" value="Monitoring stack" style="rounded=0;whiteSpace=wrap;html=1;fillColor=#ffe6cc;strokeColor=#d79b00;" vertex="1" parent="1">
          <mxGeometry x="780" y="-10" width="270" height="60" as="geometry" />
        </mxCell>
        <mxCell id="o-FBNZwD-aRnHL2j0Tsy-38" style="edgeStyle=orthogonalEdgeStyle;rounded=0;orthogonalLoop=1;jettySize=auto;html=1;entryX=0;entryY=0.5;entryDx=0;entryDy=0;startArrow=block;startFill=1;" edge="1" parent="1" source="o-FBNZwD-aRnHL2j0Tsy-37" target="o-FBNZwD-aRnHL2j0Tsy-28">
          <mxGeometry relative="1" as="geometry">
            <Array as="points">
              <mxPoint x="1200" y="20" />
              <mxPoint x="1200" y="260" />
            </Array>
          </mxGeometry>
        </mxCell>
        <mxCell id="o-FBNZwD-aRnHL2j0Tsy-39" style="edgeStyle=orthogonalEdgeStyle;rounded=0;orthogonalLoop=1;jettySize=auto;html=1;entryX=0;entryY=0.5;entryDx=0;entryDy=0;startArrow=block;startFill=1;" edge="1" parent="1" source="o-FBNZwD-aRnHL2j0Tsy-16" target="o-FBNZwD-aRnHL2j0Tsy-28">
          <mxGeometry relative="1" as="geometry">
            <Array as="points">
              <mxPoint x="1200" y="100" />
              <mxPoint x="1200" y="260" />
            </Array>
          </mxGeometry>
        </mxCell>
        <mxCell id="o-FBNZwD-aRnHL2j0Tsy-41" value="" style="group" vertex="1" connectable="0" parent="1">
          <mxGeometry x="780" y="220" width="270" height="100" as="geometry" />
        </mxCell>
        <mxCell id="o-FBNZwD-aRnHL2j0Tsy-46" value="" style="group" vertex="1" connectable="0" parent="o-FBNZwD-aRnHL2j0Tsy-41">
          <mxGeometry x="2" width="270" height="100" as="geometry" />
        </mxCell>
        <mxCell id="o-FBNZwD-aRnHL2j0Tsy-40" value="" style="rounded=0;whiteSpace=wrap;html=1;fillColor=none;" vertex="1" parent="o-FBNZwD-aRnHL2j0Tsy-46">
          <mxGeometry x="-2" width="270" height="100" as="geometry" />
        </mxCell>
        <mxCell id="o-FBNZwD-aRnHL2j0Tsy-8" value="op-geth" style="rounded=0;whiteSpace=wrap;html=1;fillColor=#dae8fc;strokeColor=#6c8ebf;" vertex="1" parent="o-FBNZwD-aRnHL2j0Tsy-46">
          <mxGeometry x="8" y="30" width="120" height="60" as="geometry" />
        </mxCell>
        <mxCell id="o-FBNZwD-aRnHL2j0Tsy-9" value="op-node" style="rounded=0;whiteSpace=wrap;html=1;fillColor=#dae8fc;strokeColor=#6c8ebf;" vertex="1" parent="o-FBNZwD-aRnHL2j0Tsy-46">
          <mxGeometry x="138" y="30" width="120" height="60" as="geometry" />
        </mxCell>
        <mxCell id="o-FBNZwD-aRnHL2j0Tsy-20" value="Read Only Replicas" style="text;html=1;align=center;verticalAlign=middle;whiteSpace=wrap;rounded=0;" vertex="1" parent="o-FBNZwD-aRnHL2j0Tsy-46">
          <mxGeometry x="75.5" width="115" height="30" as="geometry" />
        </mxCell>
        <mxCell id="o-FBNZwD-aRnHL2j0Tsy-43" value="" style="group" vertex="1" connectable="0" parent="1">
          <mxGeometry x="780" y="330" width="270" height="170" as="geometry" />
        </mxCell>
        <mxCell id="o-FBNZwD-aRnHL2j0Tsy-42" value="" style="rounded=0;whiteSpace=wrap;html=1;fillColor=none;" vertex="1" parent="o-FBNZwD-aRnHL2j0Tsy-43">
          <mxGeometry width="270" height="170" as="geometry" />
        </mxCell>
        <mxCell id="o-FBNZwD-aRnHL2j0Tsy-10" value="op-geth" style="rounded=0;whiteSpace=wrap;html=1;fillColor=#dae8fc;strokeColor=#6c8ebf;" vertex="1" parent="o-FBNZwD-aRnHL2j0Tsy-43">
          <mxGeometry x="10" y="30" width="120" height="60" as="geometry" />
        </mxCell>
        <mxCell id="o-FBNZwD-aRnHL2j0Tsy-11" value="op-node" style="rounded=0;whiteSpace=wrap;html=1;fillColor=#dae8fc;strokeColor=#6c8ebf;" vertex="1" parent="o-FBNZwD-aRnHL2j0Tsy-43">
          <mxGeometry x="140" y="30" width="120" height="60" as="geometry" />
        </mxCell>
        <mxCell id="o-FBNZwD-aRnHL2j0Tsy-12" value="op-batcher" style="rounded=0;whiteSpace=wrap;html=1;fillColor=#dae8fc;strokeColor=#6c8ebf;" vertex="1" parent="o-FBNZwD-aRnHL2j0Tsy-43">
          <mxGeometry x="10" y="100" width="120" height="60" as="geometry" />
        </mxCell>
        <mxCell id="o-FBNZwD-aRnHL2j0Tsy-13" value="op-proposer" style="rounded=0;whiteSpace=wrap;html=1;fillColor=#dae8fc;strokeColor=#6c8ebf;" vertex="1" parent="o-FBNZwD-aRnHL2j0Tsy-43">
          <mxGeometry x="140" y="100" width="120" height="60" as="geometry" />
        </mxCell>
        <mxCell id="o-FBNZwD-aRnHL2j0Tsy-21" value="Sequencer" style="text;html=1;align=center;verticalAlign=middle;whiteSpace=wrap;rounded=0;" vertex="1" parent="o-FBNZwD-aRnHL2j0Tsy-43">
          <mxGeometry x="97.5" width="75" height="30" as="geometry" />
        </mxCell>
        <mxCell id="o-FBNZwD-aRnHL2j0Tsy-47" style="edgeStyle=orthogonalEdgeStyle;rounded=0;orthogonalLoop=1;jettySize=auto;html=1;startArrow=block;startFill=1;" edge="1" parent="1" source="o-FBNZwD-aRnHL2j0Tsy-42" target="o-FBNZwD-aRnHL2j0Tsy-15">
          <mxGeometry relative="1" as="geometry" />
        </mxCell>
        <mxCell id="o-FBNZwD-aRnHL2j0Tsy-48" style="edgeStyle=orthogonalEdgeStyle;rounded=0;orthogonalLoop=1;jettySize=auto;html=1;entryX=0;entryY=0.5;entryDx=0;entryDy=0;startArrow=block;startFill=1;" edge="1" parent="1" source="o-FBNZwD-aRnHL2j0Tsy-40" target="o-FBNZwD-aRnHL2j0Tsy-15">
          <mxGeometry relative="1" as="geometry">
            <Array as="points">
              <mxPoint x="1070" y="300" />
              <mxPoint x="1070" y="360" />
            </Array>
          </mxGeometry>
        </mxCell>
        <mxCell id="o-FBNZwD-aRnHL2j0Tsy-51" style="edgeStyle=orthogonalEdgeStyle;rounded=0;orthogonalLoop=1;jettySize=auto;html=1;entryX=0;entryY=0.5;entryDx=0;entryDy=0;" edge="1" parent="1" source="o-FBNZwD-aRnHL2j0Tsy-50" target="o-FBNZwD-aRnHL2j0Tsy-2">
          <mxGeometry relative="1" as="geometry">
            <mxPoint x="230" y="-30" as="targetPoint" />
          </mxGeometry>
        </mxCell>
        <mxCell id="o-FBNZwD-aRnHL2j0Tsy-52" style="edgeStyle=orthogonalEdgeStyle;rounded=0;orthogonalLoop=1;jettySize=auto;html=1;entryX=-0.003;entryY=0.463;entryDx=0;entryDy=0;entryPerimeter=0;" edge="1" parent="1" source="o-FBNZwD-aRnHL2j0Tsy-50" target="o-FBNZwD-aRnHL2j0Tsy-19">
          <mxGeometry relative="1" as="geometry">
            <mxPoint x="470" y="240" as="targetPoint" />
          </mxGeometry>
        </mxCell>
        <mxCell id="o-FBNZwD-aRnHL2j0Tsy-53" style="edgeStyle=orthogonalEdgeStyle;rounded=0;orthogonalLoop=1;jettySize=auto;html=1;entryX=0;entryY=0.5;entryDx=0;entryDy=0;exitX=0.5;exitY=1;exitDx=0;exitDy=0;" edge="1" parent="1" source="o-FBNZwD-aRnHL2j0Tsy-50" target="o-FBNZwD-aRnHL2j0Tsy-32">
          <mxGeometry relative="1" as="geometry">
            <mxPoint x="485" y="622.5" as="targetPoint" />
            <mxPoint x="220" y="267.5" as="sourcePoint" />
            <Array as="points">
              <mxPoint x="220" y="620" />
            </Array>
          </mxGeometry>
        </mxCell>
        <mxCell id="o-FBNZwD-aRnHL2j0Tsy-50" value="CLI" style="rounded=0;whiteSpace=wrap;html=1;fillColor=#fad9d5;strokeColor=#ae4132;" vertex="1" parent="1">
          <mxGeometry x="160" y="210" width="120" height="60" as="geometry" />
        </mxCell>
        <mxCell id="o-FBNZwD-aRnHL2j0Tsy-63" value="" style="group" vertex="1" connectable="0" parent="1">
          <mxGeometry x="530" y="-190" width="120" height="140" as="geometry" />
        </mxCell>
        <mxCell id="o-FBNZwD-aRnHL2j0Tsy-7" value="Docker registry" style="rounded=0;whiteSpace=wrap;html=1;" vertex="1" parent="o-FBNZwD-aRnHL2j0Tsy-63">
          <mxGeometry width="120" height="60" as="geometry" />
        </mxCell>
        <mxCell id="o-FBNZwD-aRnHL2j0Tsy-62" value="" style="group" vertex="1" connectable="0" parent="o-FBNZwD-aRnHL2j0Tsy-63">
          <mxGeometry x="10" y="80" width="100" height="60" as="geometry" />
        </mxCell>
        <mxCell id="o-FBNZwD-aRnHL2j0Tsy-25" value="" style="rounded=0;whiteSpace=wrap;html=1;aspect=fixed;" vertex="1" parent="o-FBNZwD-aRnHL2j0Tsy-62">
          <mxGeometry width="80" height="40" as="geometry" />
        </mxCell>
        <mxCell id="o-FBNZwD-aRnHL2j0Tsy-26" value="" style="rounded=0;whiteSpace=wrap;html=1;aspect=fixed;" vertex="1" parent="o-FBNZwD-aRnHL2j0Tsy-62">
          <mxGeometry x="10" y="10" width="80" height="40" as="geometry" />
        </mxCell>
        <mxCell id="o-FBNZwD-aRnHL2j0Tsy-27" value="&lt;span style=&quot;font-size: 8px;&quot;&gt;batcher/node/etc&lt;/span&gt;" style="rounded=0;whiteSpace=wrap;html=1;aspect=fixed;" vertex="1" parent="o-FBNZwD-aRnHL2j0Tsy-62">
          <mxGeometry x="20" y="20" width="80" height="40" as="geometry" />
        </mxCell>
        <mxCell id="o-FBNZwD-aRnHL2j0Tsy-64" value="" style="group" vertex="1" connectable="0" parent="1">
          <mxGeometry x="385" y="-190" width="120" height="140" as="geometry" />
        </mxCell>
        <mxCell id="o-FBNZwD-aRnHL2j0Tsy-6" value="Local images" style="rounded=0;whiteSpace=wrap;html=1;" vertex="1" parent="o-FBNZwD-aRnHL2j0Tsy-64">
          <mxGeometry width="120" height="60" as="geometry" />
        </mxCell>
        <mxCell id="o-FBNZwD-aRnHL2j0Tsy-61" value="" style="group" vertex="1" connectable="0" parent="o-FBNZwD-aRnHL2j0Tsy-64">
          <mxGeometry x="10" y="80" width="100" height="60" as="geometry" />
        </mxCell>
        <mxCell id="o-FBNZwD-aRnHL2j0Tsy-22" value="" style="rounded=0;whiteSpace=wrap;html=1;aspect=fixed;" vertex="1" parent="o-FBNZwD-aRnHL2j0Tsy-61">
          <mxGeometry width="80" height="40" as="geometry" />
        </mxCell>
        <mxCell id="o-FBNZwD-aRnHL2j0Tsy-23" value="" style="rounded=0;whiteSpace=wrap;html=1;aspect=fixed;" vertex="1" parent="o-FBNZwD-aRnHL2j0Tsy-61">
          <mxGeometry x="10" y="10" width="80" height="40" as="geometry" />
        </mxCell>
        <mxCell id="o-FBNZwD-aRnHL2j0Tsy-24" value="&lt;span style=&quot;font-size: 8px;&quot;&gt;batcher/node/etc&lt;/span&gt;" style="rounded=0;whiteSpace=wrap;html=1;aspect=fixed;" vertex="1" parent="o-FBNZwD-aRnHL2j0Tsy-61">
          <mxGeometry x="20" y="20" width="80" height="40" as="geometry" />
        </mxCell>
        <mxCell id="o-FBNZwD-aRnHL2j0Tsy-65" value="" style="group" vertex="1" connectable="0" parent="1">
          <mxGeometry x="240" y="-190" width="120" height="140" as="geometry" />
        </mxCell>
        <mxCell id="o-FBNZwD-aRnHL2j0Tsy-2" value="Sources" style="rounded=0;whiteSpace=wrap;html=1;" vertex="1" parent="o-FBNZwD-aRnHL2j0Tsy-65">
          <mxGeometry width="120" height="60" as="geometry" />
        </mxCell>
        <mxCell id="o-FBNZwD-aRnHL2j0Tsy-60" value="" style="group" vertex="1" connectable="0" parent="o-FBNZwD-aRnHL2j0Tsy-65">
          <mxGeometry x="10" y="80" width="100" height="60" as="geometry" />
        </mxCell>
        <mxCell id="o-FBNZwD-aRnHL2j0Tsy-3" value="" style="rounded=0;whiteSpace=wrap;html=1;aspect=fixed;" vertex="1" parent="o-FBNZwD-aRnHL2j0Tsy-60">
          <mxGeometry width="80" height="40" as="geometry" />
        </mxCell>
        <mxCell id="o-FBNZwD-aRnHL2j0Tsy-4" value="" style="rounded=0;whiteSpace=wrap;html=1;aspect=fixed;" vertex="1" parent="o-FBNZwD-aRnHL2j0Tsy-60">
          <mxGeometry x="10" y="10" width="80" height="40" as="geometry" />
        </mxCell>
        <mxCell id="o-FBNZwD-aRnHL2j0Tsy-5" value="&lt;font style=&quot;font-size: 8px;&quot;&gt;batcher/node/etc&lt;/font&gt;" style="rounded=0;whiteSpace=wrap;html=1;aspect=fixed;" vertex="1" parent="o-FBNZwD-aRnHL2j0Tsy-60">
          <mxGeometry x="20" y="20" width="80" height="40" as="geometry" />
        </mxCell>
        <mxCell id="o-FBNZwD-aRnHL2j0Tsy-66" value="Kubernettes" style="text;html=1;align=center;verticalAlign=middle;whiteSpace=wrap;rounded=0;" vertex="1" parent="1">
          <mxGeometry x="885" y="-50" width="60" height="30" as="geometry" />
        </mxCell>
        <mxCell id="o-FBNZwD-aRnHL2j0Tsy-67" style="edgeStyle=orthogonalEdgeStyle;rounded=0;orthogonalLoop=1;jettySize=auto;html=1;entryX=0.5;entryY=0;entryDx=0;entryDy=0;startArrow=block;startFill=1;" edge="1" parent="1" source="o-FBNZwD-aRnHL2j0Tsy-42" target="o-FBNZwD-aRnHL2j0Tsy-14">
          <mxGeometry relative="1" as="geometry" />
        </mxCell>
        <mxCell id="o-FBNZwD-aRnHL2j0Tsy-69" value="" style="group" vertex="1" connectable="0" parent="1">
          <mxGeometry x="510" y="670" width="100" height="60" as="geometry" />
        </mxCell>
        <mxCell id="o-FBNZwD-aRnHL2j0Tsy-34" value="" style="rounded=0;whiteSpace=wrap;html=1;aspect=fixed;" vertex="1" parent="o-FBNZwD-aRnHL2j0Tsy-69">
          <mxGeometry width="80" height="40" as="geometry" />
        </mxCell>
        <mxCell id="o-FBNZwD-aRnHL2j0Tsy-35" value="" style="rounded=0;whiteSpace=wrap;html=1;aspect=fixed;" vertex="1" parent="o-FBNZwD-aRnHL2j0Tsy-69">
          <mxGeometry x="10" y="10" width="80" height="40" as="geometry" />
        </mxCell>
        <mxCell id="o-FBNZwD-aRnHL2j0Tsy-36" value="deploy-config/genesis/etc" style="rounded=0;whiteSpace=wrap;html=1;aspect=fixed;fontSize=8;" vertex="1" parent="o-FBNZwD-aRnHL2j0Tsy-69">
          <mxGeometry x="20" y="20" width="80" height="40" as="geometry" />
        </mxCell>
        <mxCell id="o-FBNZwD-aRnHL2j0Tsy-75" value="" style="group" vertex="1" connectable="0" parent="1">
          <mxGeometry x="1370" y="100" width="30" height="320" as="geometry" />
        </mxCell>
        <mxCell id="o-FBNZwD-aRnHL2j0Tsy-29" value="" style="shape=umlActor;verticalLabelPosition=bottom;verticalAlign=top;html=1;outlineConnect=0;" vertex="1" parent="o-FBNZwD-aRnHL2j0Tsy-75">
          <mxGeometry width="30" height="60" as="geometry" />
        </mxCell>
        <mxCell id="o-FBNZwD-aRnHL2j0Tsy-30" value="" style="shape=umlActor;verticalLabelPosition=bottom;verticalAlign=top;html=1;outlineConnect=0;" vertex="1" parent="o-FBNZwD-aRnHL2j0Tsy-75">
          <mxGeometry y="130" width="30" height="60" as="geometry" />
        </mxCell>
        <mxCell id="o-FBNZwD-aRnHL2j0Tsy-31" value="" style="shape=umlActor;verticalLabelPosition=bottom;verticalAlign=top;html=1;outlineConnect=0;" vertex="1" parent="o-FBNZwD-aRnHL2j0Tsy-75">
          <mxGeometry y="260" width="30" height="60" as="geometry" />
        </mxCell>
      </root>
    </mxGraphModel>
  </diagram>
</mxfile>
